# xmcd
#
# Track frame offsets: 
#        150
#        6439
#        29909
#        39933
#        55810
#        71894
#        87076
#        120708
#        139864
#        154064
#        194865
#        211633
#        229535
#
# Disc length: 3214 seconds
#
# Revision: 0
# Processed by: cddbd v1.5.1PL2 Copyright (c) Steve Scherf et al.
# Submitted via: ExactAudioCopy v0.95b3
#
DISCID=b70c8c0d
DTITLE=Marryatville High School and SCEGGS Redlands - European Concert T
DTITLE=our 2001
DYEAR=2001
DGENRE=Classical
TTITLE0=Howarth - Processional Fanfare
TTITLE1=Smith - Worthy To Be Praised
TTITLE2=Leek - Tungare
TTITLE3=Rutter - Pie Jesu
TTITLE4=Vivaldi - Autumn
TTITLE5=Vaughn Williams - March
TTITLE6=Hammond - Silver
TTITLE7=Mangione Children of Sanchez
TTITLE8=Simon - Bridge Over Troubled Water
TTITLE9=Chattaway - Mazama
TTITLE10=Rowland - The Man From Snowy River
TTITLE11=Offenbach - Can Can
TTITLE12=Hultgren - America's Cup March
EXTD=
EXTT0=
EXTT1=
EXTT2=
EXTT3=
EXTT4=
EXTT5=
EXTT6=
EXTT7=
EXTT8=
EXTT9=
EXTT10=
EXTT11=
EXTT12=
PLAYORDER=
